<?xml version="1.0" encoding="utf-8"?>
<!-- Generator: Adobe Illustrator 25.0.1, SVG Export Plug-In . SVG Version: 6.00 Build 0)  -->
<svg version="1.1" id="Layer_1" xmlns="http://www.w3.org/2000/svg" xmlns:xlink="http://www.w3.org/1999/xlink" x="0px" y="0px"
	 viewBox="0 0 1080 1080" style="enable-background:new 0 0 1080 1080;" xml:space="preserve">
<style type="text/css">
	.st0{fill:#212121;}
</style>
<g>
	<path class="st0" d="M940.79,251.45c-60.51-44.83-131.22-59.69-196.87-43.05c41.72-57.46,26.2-122.85,25.97-123.77l-8.57-34.08
		L746.6,82.47c-0.21,0.45-21.51,45.85-65.11,68.39c-33.9,17.53-64.43,23.63-99.54,30.65l-10.9,1.96
		c-10.3,1.85-20.66,2.81-31.03,2.89c-10.37-0.08-20.74-1.04-31.04-2.89l-10.67-1.92c-35.34-7.06-65.87-13.16-99.78-30.7
		c-43.34-22.41-64.91-67.95-65.12-68.41l-14.75-31.7l-8.52,33.88c-0.23,0.92-15.76,66.31,25.97,123.77
		c-65.63-16.64-136.36-1.79-196.87,43.05l-8.21,6.09l4.41,9.22c1.19,2.5,30.1,61.33,102.81,69.99c20.99,2.5,38.61-0.6,55.66-3.61
		c9.59-1.69,18.68-3.29,27.91-3.81c-2.04,16.6-2.13,33.4-0.18,48.52c5.74,44.63,20.31,71.77,37.17,103.19
		c6.78,12.63,13.8,25.7,21.01,41.23c12.13,26.09,19.33,46.8,24.1,60.5c3.31,9.51,5.69,16.37,8.47,21.12
		c-0.75,1.06-1.5,2.11-2.24,3.17c-38.36,54.8-35.13,86.66-25.68,103.74c7.68,13.87,25.95,30.01,69.1,27.71
		c10.55-0.54,19.63-3.11,27.4-7.09c13.83,8.04,32.73,13.55,59.07,13.55h2.53c25.91,0,44.17-5.04,57.58-13.03
		c7.54,3.69,16.28,6.06,26.36,6.57c43.27,2.27,61.42-13.84,69.1-27.71c9.46-17.08,12.68-48.94-25.68-103.74
		c-0.74-1.06-1.49-2.11-2.24-3.17c2.78-4.76,5.16-11.62,8.47-21.13c4.77-13.71,11.97-34.42,24.09-60.49
		c7.21-15.53,14.23-28.6,21.01-41.23c16.87-31.42,31.43-58.56,37.17-103.19c1.95-15.12,1.86-31.93-0.18-48.52
		c9.23,0.51,18.32,2.12,27.91,3.81c17.04,3.01,34.68,6.11,55.66,3.61c72.71-8.66,101.61-67.49,102.81-69.99l4.41-9.22L940.79,251.45
		z M692.87,172.88c24.52-12.68,42.84-31.13,55.37-47.13c-1.64,26.28-11.37,62.57-47.01,92.04c-13.63-11.27-30.49-20.85-51.36-27.13
		C663.9,186.16,678.12,180.51,692.87,172.88z M603.66,512.74c-7.56-15.69-13.23-33.09-15.88-53.57
		c-16.05-123.7,48.58-172.48,113.13-206.99c14.67,17.48,22.98,37.42,27.68,54.58c-9.3,1.97-19.16,5.29-29.78,10.53
		C633.09,349.7,593.95,431.75,603.66,512.74z M557.66,222.32c6.84-9.08,22.48-14.63,40.61-14.63c1.49,0,3.01,0.04,4.53,0.12
		c33.49,1.68,58.47,11.31,77.12,24.81c-8.79,5.15-18.67,9.93-29.77,14.22c-25.77,9.98-74.29,7.12-90.52-9.56
		C557.88,235.48,552.56,229.09,557.66,222.32z M522.34,222.32c5.1,6.77-0.22,13.16-1.97,14.96c-16.24,16.66-64.76,19.51-90.52,9.56
		c-11.1-4.29-20.98-9.07-29.77-14.22c18.65-13.5,43.63-23.13,77.12-24.81C497.17,206.78,514.94,212.49,522.34,222.32z
		 M476.34,512.73c9.71-80.99-29.44-163.04-95.15-195.43c-10.62-5.24-20.48-8.56-29.79-10.53c4.7-17.16,13-37.1,27.68-54.58
		c64.54,34.5,129.18,83.28,113.13,206.99C489.56,479.65,483.9,497.04,476.34,512.73z M331.75,125.75
		c12.53,16,30.85,34.45,55.37,47.13c14.75,7.63,28.97,13.28,43,17.78c-20.87,6.28-37.73,15.86-51.36,27.13
		C343.12,188.32,333.39,152.02,331.75,125.75z M289.57,308.72c-15.97,2.82-31.05,5.48-48.42,3.4
		c-43.87-5.22-68.14-32.75-78.05-47.21c60.58-40.87,130.98-49.4,193.23-23.74c-16.69,21.79-25.38,45.51-29.88,63.18
		C313.5,304.5,301.44,306.63,289.57,308.72z M346.54,331.1c7.42,1.59,15.23,4.26,23.69,8.43c50.26,24.78,82.3,83.98,82.8,146.6
		c-19.48-23.07-50.94-51.16-94.31-61.77c-5.68-14.49-10.03-30.18-12.54-49.68C344.44,361.18,344.59,346.06,346.54,331.1z
		 M402.26,511.82c-7.52-16.18-15.03-30.17-21.65-42.51c-2.58-4.8-5.06-9.44-7.45-14.01c40.01,17.33,66.04,51.83,76.45,67.83
		c-0.02,0.11-0.04,0.21-0.06,0.32c-2.91,14.6-7.88,39.54-20.3,56.78c-0.65-1.82-1.3-3.73-1.96-5.61
		C422.36,560.45,414.91,539.03,402.26,511.82z M481.09,700.25c-4.87-5.31-8.39-11.27-11.35-17.39c-2.64-5.44-5.75-13.92-6.35-24.4
		h34.58C496.87,670.74,492.16,688.23,481.09,700.25z M610.26,682.86c-3.12,6.43-6.43,12.51-10.95,17.82
		c-11.36-12.03-16.17-29.8-17.28-42.23h34.58C616.02,668.93,612.91,677.41,610.26,682.86z M673.89,698.79
		c-6.02,10.88-22.41,16.19-46.15,14.97c-2.32-0.12-4.53-0.4-6.63-0.83c4.57-6.06,8.23-12.6,11.46-19.26
		c4.01-8.27,8.81-21.59,8.93-38.09c0.04-5.78-2.19-11.23-6.3-15.36c-4.12-4.16-9.85-6.54-15.7-6.54h-40.43
		c-5.99,0-11.79,2.48-15.92,6.8c-4.13,4.32-6.34,10.22-6.07,16.2c0.73,15.85,6.53,40.19,21.59,58.23
		c-8.99,3.34-20.62,5.28-36.14,5.28H540c-16.16,0-28.49-2.23-38.1-5.97c14.65-17.96,20.31-41.89,21.02-57.53
		c0.28-5.97-1.93-11.87-6.06-16.19c-4.13-4.33-9.94-6.81-15.93-6.81H460.5c-5.85,0-11.58,2.38-15.7,6.54
		c-4.1,4.13-6.34,9.59-6.3,15.36c0.13,16.51,4.92,29.83,8.93,38.09c2.95,6.1,6.72,12.75,11.89,19.17c-2.23,0.48-4.59,0.79-7.06,0.92
		c-23.68,1.14-40.13-4.11-46.15-14.97c-8.41-15.18,0.45-43.44,24.3-77.51c7.27-10.39,15.28-20.56,23.04-30.4
		c27.47-34.89,55.89-70.97,63.35-128.51c11.99-92.46-19.54-149.05-57.56-185.19c28.84,1.35,61.46-4.71,78.88-22.59
		c0.65-0.67,1.28-1.36,1.88-2.06c0.6,0.7,1.22,1.39,1.88,2.06c17.41,17.88,49.99,23.95,78.88,22.59
		c-38.01,36.14-69.55,92.73-57.56,185.19c7.46,57.55,35.88,93.62,63.35,128.51c7.75,9.84,15.77,20.02,23.04,30.4
		C673.44,655.35,682.29,683.6,673.89,698.79z M699.39,469.31c-6.63,12.34-14.14,26.33-21.65,42.51
		c-12.64,27.21-20.09,48.62-25.02,62.79c-0.66,1.9-1.32,3.8-1.96,5.63c-12.42-17.23-17.39-42.19-20.3-56.78
		c-0.02-0.11-0.04-0.22-0.06-0.32c10.41-16,36.44-50.5,76.44-67.83C704.45,459.87,701.97,464.51,699.39,469.31z M733.82,374.69
		c-2.51,19.49-6.86,35.18-12.54,49.68c-43.36,10.61-74.83,38.7-94.31,61.76c0.5-62.62,32.54-121.82,82.81-146.59
		c8.46-4.17,16.27-6.84,23.69-8.43C735.41,346.06,735.56,361.18,733.82,374.69z M838.85,312.13c-17.35,2.07-32.45-0.59-48.42-3.4
		c-11.88-2.09-23.93-4.22-36.88-4.37c-4.5-17.67-13.2-41.39-29.88-63.18c62.24-25.63,132.61-17.11,193.19,23.72
		C906.89,279.33,882.46,306.93,838.85,312.13z"/>
	<g>
		<path class="st0" d="M300.01,951.76v-91.12h33.13v94.03c0,34.48,11.87,46.12,31.34,46.12c19.7,0,32.24-11.64,32.24-46.12v-94.03
			h31.79v91.12c0,55.07-23.51,77.69-64.03,77.69C324.19,1029.44,300.01,1006.83,300.01,951.76z"/>
		<path class="st0" d="M468.36,860.64h36.72l28.21,77.46c3.58,10.3,6.72,21.27,10.08,32.01h1.12c3.58-10.75,6.49-21.72,10.07-32.01
			l27.54-77.46h36.72v165.67h-30.22v-69.18c0-15.67,2.46-38.73,4.03-54.4h-0.9l-13.43,38.96l-25.52,69.62h-19.03l-25.75-69.62
			l-13.21-38.96h-0.9c1.57,15.67,4.25,38.73,4.25,54.4v69.18h-29.78V860.64z"/>
		<path class="st0" d="M651.26,944.15c0-54.63,35.15-86.64,77.01-86.64c21.04,0,37.83,10.07,48.58,21.27l-17.46,21.04
			c-8.28-8.06-17.91-13.88-30.45-13.88c-25.07,0-43.88,21.49-43.88,57.09c0,36.04,17.01,57.76,43.21,57.76
			c14.1,0,25.3-6.72,34.25-16.34l17.46,20.6c-13.66,15.9-31.34,24.4-52.83,24.4C685.29,1029.44,651.26,999.44,651.26,944.15z"/>
	</g>
	<g>
		<path class="st0" d="M318.99,817.69v-23.37h6.45v23.81c0,9.23,3.67,12.24,8.79,12.24c5.17,0,8.96-3,8.96-12.24v-23.81h6.23v23.37
			c0,13.35-6.12,18.3-15.19,18.3S318.99,831.04,318.99,817.69z"/>
		<path class="st0" d="M359.99,794.33h6.62l13.57,24.03l4.28,8.68h0.28c-0.33-4.23-0.83-9.18-0.83-13.63v-19.08h6.12v40.95h-6.62
			l-13.57-24.14l-4.28-8.57h-0.28c0.33,4.23,0.83,8.96,0.83,13.41v19.3h-6.12V794.33z"/>
		<path class="st0" d="M400.83,794.33h6.45v40.95h-6.45V794.33z"/>
		<path class="st0" d="M426.36,799.72h-12.02v-5.4h30.54v5.4h-12.07v35.55h-6.45V799.72z"/>
		<path class="st0" d="M451.96,794.33h24.2v5.4h-17.75v11.41h15.02v5.45h-15.02v13.24h18.36v5.45h-24.81V794.33z"/>
		<path class="st0" d="M485.34,794.33h10.63c12.57,0,19.75,6.95,19.75,20.31c0,13.3-7.18,20.64-19.42,20.64h-10.96V794.33z
			 M495.52,829.99c8.79,0,13.52-5.17,13.52-15.35c0-10.24-4.73-15.08-13.52-15.08h-3.73v30.43H495.52z"/>
		<path class="st0" d="M536.75,794.33h7.4l7.51,20.7c0.95,2.73,1.78,5.51,2.73,8.29h0.28c0.95-2.78,1.72-5.56,2.67-8.29l7.4-20.7
			h7.46v40.95h-6.01v-20.25c0-3.67,0.5-8.96,0.83-12.68h-0.22l-3.28,9.46l-7.12,19.53h-4.01l-7.18-19.53l-3.23-9.46h-0.22
			c0.28,3.73,0.78,9.01,0.78,12.68v20.25h-5.79V794.33z"/>
		<path class="st0" d="M582.92,794.33h24.2v5.4h-17.75v11.41h15.02v5.45h-15.02v13.24h18.36v5.45h-24.81V794.33z"/>
		<path class="st0" d="M635.22,823.59h-14.24l-3.5,11.68h-6.56l13.57-40.95h7.46l13.57,40.95h-6.84L635.22,823.59z M633.66,818.53
			l-1.61-5.51c-1.39-4.45-2.62-9.01-3.89-13.63h-0.22c-1.17,4.67-2.45,9.18-3.78,13.63l-1.67,5.51H633.66z"/>
		<path class="st0" d="M655.47,799.72h-12.02v-5.4H674v5.4h-12.07v35.55h-6.45V799.72z"/>
		<path class="st0" d="M691.36,814.91c0-13.35,8.12-21.36,18.47-21.36c5.12,0,9.12,2.45,11.63,5.17l-3.5,4.12
			c-2.11-2.17-4.67-3.67-8.01-3.67c-7.07,0-11.96,5.9-11.96,15.52c0,9.74,4.56,15.69,11.79,15.69c3.73,0,6.62-1.67,9.07-4.34
			l3.45,4.06c-3.28,3.78-7.46,5.9-12.74,5.9C699.26,836,691.36,828.32,691.36,814.91z"/>
		<path class="st0" d="M725.35,814.63c0-13.19,7.29-21.09,17.8-21.09s17.86,7.9,17.86,21.09c0,13.18-7.34,21.36-17.86,21.36
			S725.35,827.82,725.35,814.63z M754.39,814.63c0-9.62-4.45-15.47-11.24-15.47s-11.18,5.84-11.18,15.47
			c0,9.62,4.4,15.74,11.18,15.74S754.39,824.26,754.39,814.63z"/>
	</g>
</g>
</svg>
